# xmcd CD database file generated by Grip 3.2.0
# 
# Track frame offsets:
#       150
#       15470
#       34927
#       55657
#       73395
#       94775
#       114002
#       138332
#       156530
#       177562
#       192585
#       213650
#       232717
#       260005
# 
# Disc length: 3855 seconds
# 
# Revision: 2
# Processed by: cddbd v1.5.1PL0 Copyright (c) Steve Scherf et al.
# Submitted via: Grip 3.2.0
# 
DISCID=c90f0d0e
DTITLE=Kenny Chesney - Be As You Are
DYEAR=2004
DGENRE=Country
TTITLE0=Old Blue Chair
TTITLE1=Be As You Are
TTITLE2=Guitars and Tiki Bars
TTITLE3=Island Boy
TTITLE4=Somewhere In The Sun
TTITLE5=Boston
TTITLE6=Something Sexy About The Rain
TTITLE7=French Kissing Life
TTITLE8=Key Lime Pie
TTITLE9=Sherry's Living In Paradise
TTITLE10=Magic
TTITLE11=Soul Of A Sailor
TTITLE12=Old Blue Chair (ocean mix)
TTITLE13=Kenny Chesney /
EXTD=
EXTT0=
EXTT1=
EXTT2=
EXTT3=
EXTT4=
EXTT5=
EXTT6=
EXTT7=
EXTT8=
EXTT9=
EXTT10=
EXTT11=
EXTT12=
EXTT13=
PLAYORDER=
